# xmcd
#
# Track frame offsets:
#	150
#	13355
#	26570
#	41555
#	55587
#	70842
#	82984
#	95006
#	109511
#	122861
#	137463
#	152185
#	168182
#	184082
#
# Disc length: 2652 seconds
#
# Revision: 0
# Processed by: cddbd v1.5.2PL0 Copyright (c) Steve Scherf et al.
# Submitted via: EasyCDDAExtractor 16.0.6.1
#
DISCID=b10a5a0e
DTITLE=Συλλογικός δίσκος - Τα ινδοπρεπή 2
DYEAR=1995
DGENRE=Λαϊκή
TTITLE0=Πάλλα Βούλα - Σ' έχω ανάγκη [Β. Πάλλα]
TTITLE1=Κύπριος Στράτος-Σακελλαρίου Ρίτα - Ποιος σού είπε δε σ' αγαπώ [Απ. Καλ
TTITLE1=δάρας]
TTITLE2=Αγγελόπουλος Μανώλης - Καλή τύχη [Απ. Καλδάρας]
TTITLE3=Σακελλαρίου Ρίτα - Μείνε, μείνε κοντά μου [Βαγγ. Σούκας]
TTITLE4=Σακελλαρίου Ρίτα - Αυγή συννεφιασμένη [Νάκης Πετρίδης-Ηρ. Παπασιδέρης]
TTITLE5=Κύπριος Στράτος - Προσευχή [Σπ. Ζαγοραίος-Δημ. Γκούτης]
TTITLE6=Πάλλα Βούλα - Γιατί να φύγεις υιέ μου [Ali Naushad-Β. Πάλλα]
TTITLE7=Καββαδίας Απόστολος - Φαρμακωμένα χείλη [Βασ. Τσιτσάνης]
TTITLE8=Σιδέρη Σοφία - Όταν λείπεις μακρυά μου [Στέλιος Χρυσίνης-Κώστας Πολίτη
TTITLE8=ς]
TTITLE9=Βασιλόπουλος Πάνος - Δεν περίμενα από σένα, να τιμωρηθώ[Π. Γαβαλάς-Β. 
TTITLE9=Βασιλειάδης]
TTITLE10=Κουβίδη Ελένη - Η τελευταία μέρα [Γ. Ζαμπέτας]
TTITLE11=Αγγελόπουλος Μανώλης - Το πικραμένο γράμμα [Μπάμπης Μπακάλης]
TTITLE12=Μπαρμπεράκης Μανώλης - Και σήμερα κοντά σου [Βαγγ. Σούκας]
TTITLE13=Πάλλα Βούλα - Απορώ [Ali Naushad-Β. Πάλλα]
EXTD=
EXTT0=
EXTT1=
EXTT2=
EXTT3=
EXTT4=
EXTT5=
EXTT6=
EXTT7=
EXTT8=
EXTT9=
EXTT10=
EXTT11=
EXTT12=
EXTT13=
PLAYORDER=
